<svg width="32" height="28" viewBox="0 0 32 28" fill="none" xmlns="http://www.w3.org/2000/svg">
<path d="M24.9912 2.62949C26.2093 0.815096 24.2307 0.447626 22.9928 0.168489C22.9733 0.16296 22.9563 0.150864 22.945 0.134326C22.9337 0.117788 22.9286 0.0978622 22.9308 0.0780468C22.9329 0.0582313 22.9421 0.0397914 22.9568 0.0259621C22.9714 0.0121329 22.9905 0.00379828 23.0108 0.00242012C25.4795 -0.0488138 28.5572 0.710862 30.2385 2.52525C31.7846 4.19301 32.0206 6.60983 30.3124 8.25992C30.2711 8.30033 30.2418 8.35166 30.2277 8.40832L30.206 8.49312C30.1928 8.54848 30.1592 8.58617 30.1051 8.60619C29.4907 8.8288 28.896 9.18037 28.2689 9.2475C26.0525 9.48777 24.5935 8.57616 23.892 6.51267C23.373 4.98625 24.1262 3.91563 24.9912 2.62949Z" fill="url(#paint0_linear_2352_1852)"/>
<path d="M18.7689 1.79564C17.8931 2.75672 17.8157 4.3061 18.1995 5.47212C19.1131 8.24758 23.6738 10.3199 26.0921 11.6573C28.2833 12.8692 31.1538 15.3444 31.4259 17.9644C31.8716 22.248 30.3057 25.2249 26.7282 26.895C24.2487 28.0504 21.2592 28.2288 18.5491 27.7571C18.538 27.7551 18.5276 27.7505 18.5188 27.7436C18.51 27.7367 18.5031 27.7278 18.4986 27.7177C18.4942 27.7076 18.4923 27.6965 18.4933 27.6855C18.4942 27.6745 18.4979 27.6639 18.504 27.6547C18.7509 27.2907 19.0572 27.1635 19.5167 27.2854C22.1854 27.9921 24.9514 27.2059 25.7677 24.3563C26.2879 22.5377 25.8596 20.8829 24.4829 19.3919C24.1706 19.0538 23.5471 18.5486 22.6125 17.876C22.562 17.8395 22.5326 17.7906 22.5242 17.7294C22.1169 14.7378 20.6832 12.3422 18.2229 10.5425C16.475 9.26461 14.5877 8.25995 12.5611 7.52854C12.517 7.51265 12.4793 7.48308 12.4537 7.44424C12.428 7.4054 12.4158 7.35937 12.4188 7.31301C12.7197 2.97932 16.5921 0.352254 20.7402 0.131417C20.8021 0.127624 20.8632 0.145639 20.9127 0.182205C20.9621 0.218772 20.9966 0.271478 21.0099 0.330798C21.0232 0.390118 21.0144 0.452138 20.9851 0.505647C20.9558 0.559156 20.9079 0.600624 20.8502 0.622557C20.0321 0.938794 19.3834 1.12076 18.7689 1.79564Z" fill="url(#paint1_linear_2352_1852)"/>
<path d="M19.3798 18.0014C20.1979 23.5859 15.6083 27.0928 10.4061 27.4108C10.3914 27.412 10.3768 27.4082 10.3646 27.4002C10.3524 27.3921 10.3433 27.3802 10.3389 27.3665C10.3345 27.3527 10.335 27.3379 10.3404 27.3244C10.3457 27.311 10.3555 27.2997 10.3682 27.2925C10.9539 26.9656 11.7503 26.7059 12.1954 26.4674C13.6057 25.7089 14.3307 24.4722 14.3704 22.7574C14.41 21.0543 13.81 19.9324 12.4639 18.8088C8.37164 15.392 0.028553 15.0564 0.115047 8.05145C0.17271 3.32203 4.42174 0.774466 8.73924 0.491796C8.76799 0.489652 8.79658 0.497671 8.81983 0.514402C8.84308 0.531134 8.85945 0.55547 8.86599 0.583009C8.87252 0.610549 8.86878 0.639473 8.85544 0.664545C8.84211 0.689617 8.82007 0.709181 8.7933 0.719697C6.69581 1.55711 4.84159 2.15071 5.18397 4.89791C5.47588 7.24584 7.6941 8.58499 9.65644 9.52311C12.2116 10.7474 14.7127 11.6608 16.9274 13.5388C18.3527 14.749 19.1077 16.1447 19.3798 18.0014Z" fill="url(#paint2_linear_2352_1852)"/>
<path d="M2.81434 25.9657C0.605135 24.775 -0.859862 22.1444 0.563688 19.8212C1.32952 18.5721 2.74226 17.9184 4.23609 18.0403C6.92101 18.2612 8.52656 21.0596 7.34087 23.5012C7.0904 24.0153 6.06508 24.911 6.13536 25.7237C6.23086 26.8261 7.76433 26.9356 8.56621 27.1635C8.57982 27.1678 8.59154 27.1765 8.59945 27.1882C8.60735 27.1999 8.61098 27.2138 8.60972 27.2278C8.60846 27.2418 8.6024 27.2549 8.59253 27.2651C8.58266 27.2752 8.56957 27.2818 8.55539 27.2836C8.39202 27.3025 8.16918 27.3084 7.88687 27.3013C6.0801 27.2601 4.38926 26.8149 2.81434 25.9657Z" fill="url(#paint3_linear_2352_1852)"/>
<defs>
<linearGradient id="paint0_linear_2352_1852" x1="22.8113" y1="1.01556" x2="31.1762" y2="7.19087" gradientUnits="userSpaceOnUse">
<stop stop-color="#1A7AD3"/>
<stop offset="0.333333" stop-color="#B16CE9"/>
<stop offset="0.666667" stop-color="#E8628E"/>
<stop offset="1" stop-color="#F4751F"/>
</linearGradient>
<linearGradient id="paint1_linear_2352_1852" x1="12.1533" y1="3.1791" x2="34.2924" y2="15.3058" gradientUnits="userSpaceOnUse">
<stop stop-color="#1A7AD3"/>
<stop offset="0.333333" stop-color="#B16CE9"/>
<stop offset="0.666667" stop-color="#E8628E"/>
<stop offset="1" stop-color="#F4751F"/>
</linearGradient>
<linearGradient id="paint2_linear_2352_1852" x1="-0.154516" y1="3.43578" x2="21.7848" y2="16.0587" gradientUnits="userSpaceOnUse">
<stop stop-color="#1A7AD3"/>
<stop offset="0.333333" stop-color="#B16CE9"/>
<stop offset="0.666667" stop-color="#E8628E"/>
<stop offset="1" stop-color="#F4751F"/>
</linearGradient>
<linearGradient id="paint3_linear_2352_1852" x1="-0.119583" y1="19.0407" x2="8.2529" y2="25.2562" gradientUnits="userSpaceOnUse">
<stop stop-color="#1A7AD3"/>
<stop offset="0.333333" stop-color="#B16CE9"/>
<stop offset="0.666667" stop-color="#E8628E"/>
<stop offset="1" stop-color="#F4751F"/>
</linearGradient>
</defs>
</svg>
